<svg width="111" height="37" viewBox="0 0 111 37" fill="none" xmlns="http://www.w3.org/2000/svg">
<g filter="url(#filter0_ddi_10008_27095)">
<g clip-path="url(#clip0_10008_27095)">
<rect x="2.77344" y="1.38672" width="27.7171" height="27.7171" rx="5" fill="#111113"/>
<g filter="url(#filter1_f_10008_27095)">
<ellipse cx="14.9875" cy="3.49708" rx="14.9875" ry="3.49708" transform="matrix(0.866025 0.5 0.5 -0.866025 10.1172 -9.23438)" fill="#301DF4"/>
</g>
<ellipse cx="6.99416" cy="1.49875" rx="6.99416" ry="1.49875" transform="matrix(0.866025 0.5 0.5 -0.866025 18.0391 -6.96875)" fill="#ECEDEF"/>
<g filter="url(#filter3_f_10008_27095)">
<path d="M-3.73828 12.7637L23.9514 28.7503L32.4198 0.18118L16.7691 -8.85475L-3.73828 12.7637Z" fill="url(#paint0_linear_10008_27095)" fill-opacity="0.4"/>
</g>
<g filter="url(#filter4_d_10008_27095)">
<path d="M23.032 10.2611L18.082 7.40273C17.2737 6.93607 16.2737 6.93607 15.457 7.40273L10.5154 10.2611C9.70703 10.7277 9.20703 11.5944 9.20703 12.5361V18.2361C9.20703 19.1694 9.70703 20.0361 10.5154 20.5111L15.4654 23.3694C16.2737 23.8361 17.2737 23.8361 18.0904 23.3694L23.0404 20.5111C23.8487 20.0444 24.3487 19.1777 24.3487 18.2361V12.5361C24.3404 11.5944 23.8404 10.7361 23.032 10.2611ZM16.7737 11.5027C17.8487 11.5027 18.7154 12.3694 18.7154 13.4444C18.7154 14.5194 17.8487 15.3861 16.7737 15.3861C15.6987 15.3861 14.832 14.5194 14.832 13.4444C14.832 12.3777 15.6987 11.5027 16.7737 11.5027ZM19.007 19.2694H14.5404C13.8654 19.2694 13.4737 18.5194 13.8487 17.9611C14.4154 17.1194 15.5154 16.5527 16.7737 16.5527C18.032 16.5527 19.132 17.1194 19.6987 17.9611C20.0737 18.5111 19.6737 19.2694 19.007 19.2694Z" fill="url(#paint1_radial_10008_27095)" shape-rendering="crispEdges"/>
<path d="M15.7061 7.83496C16.3281 7.4802 17.0791 7.46041 17.708 7.76953L17.832 7.83594L22.7783 10.6914V10.6924C23.4359 11.0788 23.8417 11.7752 23.8486 12.54V18.2363C23.8485 19.0003 23.4427 19.7013 22.79 20.0781L17.8428 22.9355C17.1792 23.3148 16.3686 23.3132 15.7158 22.9365L10.7656 20.0781C10.1103 19.6916 9.70712 18.9892 9.70703 18.2363V12.5361C9.70703 11.82 10.0633 11.1589 10.6455 10.7686L10.7656 10.6943L15.707 7.83594L15.7061 7.83496ZM16.7734 16.0527C15.3745 16.0528 14.1066 16.682 13.4336 17.6816V17.6826C12.84 18.5669 13.4579 19.7693 14.54 19.7695H19.0068C20.0748 19.7695 20.7114 18.5631 20.1123 17.6816H20.1133C19.4402 16.6821 18.1724 16.0527 16.7734 16.0527ZM16.7734 11.0029C15.421 11.0031 14.3321 12.103 14.332 13.4443C14.332 14.7954 15.4224 15.8856 16.7734 15.8857C18.1246 15.8857 19.2158 14.7955 19.2158 13.4443C19.2158 12.0932 18.1246 11.0029 16.7734 11.0029Z" stroke="url(#paint2_linear_10008_27095)" shape-rendering="crispEdges"/>
</g>
</g>
<rect x="3.1199" y="1.73318" width="27.0242" height="27.0242" rx="4.65354" stroke="white" stroke-opacity="0.15" stroke-width="0.692928"/>
</g>
<path d="M38.627 21.7461V10.0734H40.6049L44.4634 17.8228L48.3219 10.0734H50.2997V21.7461H48.2408V14.7749L44.8525 21.7461H44.0743L40.686 14.7749V21.7461H38.627ZM55.9959 21.9893C55.0988 21.9893 54.3071 21.7974 53.6208 21.4137C52.9399 21.0247 52.4049 20.4924 52.0158 19.8169C51.6321 19.1359 51.4403 18.3578 51.4403 17.4823C51.4403 16.5258 51.6294 15.6936 52.0077 14.9857C52.386 14.2777 52.9075 13.7292 53.5722 13.3401C54.2369 12.9456 55.0015 12.7484 55.8662 12.7484C56.7849 12.7484 57.5657 12.9646 58.2088 13.3969C58.8519 13.8292 59.3275 14.4371 59.6355 15.2207C59.9435 16.0043 60.0516 16.9257 59.9597 17.9849H57.7792V17.1743C57.7792 16.2826 57.636 15.6422 57.3496 15.2532C57.0686 14.8587 56.6065 14.6614 55.9634 14.6614C55.2123 14.6614 54.6584 14.8911 54.3017 15.3504C53.9504 15.8044 53.7748 16.4772 53.7748 17.3688C53.7748 18.1848 53.9504 18.8171 54.3017 19.2656C54.6584 19.7088 55.1799 19.9303 55.8662 19.9303C56.2985 19.9303 56.6687 19.8358 56.9767 19.6466C57.2847 19.4575 57.5198 19.1846 57.6819 18.8279L59.8868 19.4602C59.5571 20.26 59.0356 20.8814 58.3223 21.3246C57.6144 21.7677 56.8389 21.9893 55.9959 21.9893ZM53.0939 17.9849V16.3475H58.8978V17.9849H53.0939ZM65.2108 21.9893C64.3137 21.9893 63.522 21.7974 62.8357 21.4137C62.1548 21.0247 61.6198 20.4924 61.2307 19.8169C60.847 19.1359 60.6552 18.3578 60.6552 17.4823C60.6552 16.5258 60.8443 15.6936 61.2226 14.9857C61.6009 14.2777 62.1224 13.7292 62.7871 13.3401C63.4518 12.9456 64.2165 12.7484 65.0811 12.7484C65.9998 12.7484 66.7807 12.9646 67.4237 13.3969C68.0668 13.8292 68.5424 14.4371 68.8504 15.2207C69.1584 16.0043 69.2665 16.9257 69.1746 17.9849H66.9941V17.1743C66.9941 16.2826 66.8509 15.6422 66.5645 15.2532C66.2835 14.8587 65.8214 14.6614 65.1784 14.6614C64.4272 14.6614 63.8733 14.8911 63.5166 15.3504C63.1654 15.8044 62.9897 16.4772 62.9897 17.3688C62.9897 18.1848 63.1654 18.8171 63.5166 19.2656C63.8733 19.7088 64.3948 19.9303 65.0811 19.9303C65.5134 19.9303 65.8836 19.8358 66.1916 19.6466C66.4997 19.4575 66.7347 19.1846 66.8968 18.8279L69.1017 19.4602C68.772 20.26 68.2506 20.8814 67.5372 21.3246C66.8293 21.7677 66.0538 21.9893 65.2108 21.9893ZM62.3088 17.9849V16.3475H68.1128V17.9849H62.3088ZM75.6092 21.7461C75.0039 21.8596 74.4095 21.9082 73.8259 21.892C73.2476 21.8812 72.7288 21.7812 72.2695 21.5921C71.8156 21.3975 71.4697 21.0868 71.2319 20.6599C71.0158 20.26 70.9023 19.8547 70.8915 19.444C70.8807 19.0279 70.8753 18.5577 70.8753 18.0335V10.5598H73.0801V17.9038C73.0801 18.2443 73.0828 18.5523 73.0882 18.8279C73.099 19.0981 73.1558 19.3143 73.2584 19.4764C73.453 19.7844 73.7637 19.952 74.1906 19.979C74.6176 20.006 75.0904 19.9844 75.6092 19.9141V21.7461ZM69.3838 14.6938V12.9916H75.6092V14.6938H69.3838ZM76.9116 21.7461V10.0734H84.0449V12.2782H79.1164V14.8073H83.0722V17.0122H79.1164V21.7461H76.9116ZM85.0221 21.7461V9.83021H87.2269V21.7461H85.0221ZM92.9481 21.9893C92.0673 21.9893 91.2945 21.792 90.6298 21.3975C89.9651 21.003 89.4463 20.4599 89.0735 19.7682C88.706 19.0711 88.5222 18.2713 88.5222 17.3688C88.5222 16.4556 88.7114 15.6531 89.0897 14.9613C89.4679 14.2642 89.9894 13.7211 90.6541 13.332C91.3188 12.9429 92.0835 12.7484 92.9481 12.7484C93.829 12.7484 94.6018 12.9456 95.2665 13.3401C95.9366 13.7346 96.4581 14.2804 96.8309 14.9776C97.2038 15.6693 97.3903 16.4664 97.3903 17.3688C97.3903 18.2767 97.2011 19.0792 96.8228 19.7763C96.45 20.468 95.9285 21.0111 95.2584 21.4056C94.5937 21.7947 93.8236 21.9893 92.9481 21.9893ZM92.9481 19.9303C93.6561 19.9303 94.183 19.6926 94.5288 19.217C94.8801 18.7361 95.0557 18.12 95.0557 17.3688C95.0557 16.5907 94.8774 15.9692 94.5207 15.5044C94.1695 15.0397 93.6453 14.8073 92.9481 14.8073C92.4672 14.8073 92.0727 14.9154 91.7647 15.1316C91.4566 15.3477 91.227 15.6476 91.0756 16.0313C90.9297 16.415 90.8568 16.8609 90.8568 17.3688C90.8568 18.1524 91.0324 18.7766 91.3837 19.2413C91.7403 19.7007 92.2618 19.9303 92.9481 19.9303ZM100.072 21.7461L97.3971 12.9754L99.5533 12.9916L101.142 18.2119L102.755 12.9916H104.587L106.2 18.2119L107.789 12.9916H109.945L107.27 21.7461H105.584L103.671 16.0394L101.758 21.7461H100.072Z" fill="currentColor"/>
<defs>
<filter id="filter0_ddi_10008_27095" x="0.00172663" y="0.000863314" width="33.2622" height="36.7249" filterUnits="userSpaceOnUse" color-interpolation-filters="sRGB">
<feFlood flood-opacity="0" result="BackgroundImageFix"/>
<feColorMatrix in="SourceAlpha" type="matrix" values="0 0 0 0 0 0 0 0 0 0 0 0 0 0 0 0 0 0 127 0" result="hardAlpha"/>
<feMorphology radius="1.38586" operator="dilate" in="SourceAlpha" result="effect1_dropShadow_10008_27095"/>
<feOffset/>
<feComposite in2="hardAlpha" operator="out"/>
<feColorMatrix type="matrix" values="0 0 0 0 0.745098 0 0 0 0 0.792157 0 0 0 0 0.917647 0 0 0 0.03 0"/>
<feBlend mode="normal" in2="BackgroundImageFix" result="effect1_dropShadow_10008_27095"/>
<feColorMatrix in="SourceAlpha" type="matrix" values="0 0 0 0 0 0 0 0 0 0 0 0 0 0 0 0 0 0 127 0" result="hardAlpha"/>
<feMorphology radius="4.15757" operator="erode" in="SourceAlpha" result="effect2_dropShadow_10008_27095"/>
<feOffset dy="4.85049"/>
<feGaussianBlur stdDeviation="3.46464"/>
<feComposite in2="hardAlpha" operator="out"/>
<feColorMatrix type="matrix" values="0 0 0 0 0 0 0 0 0 0 0 0 0 0 0 0 0 0 1 0"/>
<feBlend mode="normal" in2="effect1_dropShadow_10008_27095" result="effect2_dropShadow_10008_27095"/>
<feBlend mode="normal" in="SourceGraphic" in2="effect2_dropShadow_10008_27095" result="shape"/>
<feColorMatrix in="SourceAlpha" type="matrix" values="0 0 0 0 0 0 0 0 0 0 0 0 0 0 0 0 0 0 127 0" result="hardAlpha"/>
<feOffset dy="2.77171"/>
<feGaussianBlur stdDeviation="3.46464"/>
<feComposite in2="hardAlpha" operator="arithmetic" k2="-1" k3="1"/>
<feColorMatrix type="matrix" values="0 0 0 0 1 0 0 0 0 1 0 0 0 0 1 0 0 0 0.11 0"/>
<feBlend mode="normal" in2="shape" result="effect3_innerShadow_10008_27095"/>
</filter>
<filter id="filter1_f_10008_27095" x="8.28146" y="-16.3182" width="33.1285" height="23.0992" filterUnits="userSpaceOnUse" color-interpolation-filters="sRGB">
<feFlood flood-opacity="0" result="BackgroundImageFix"/>
<feBlend mode="normal" in="SourceGraphic" in2="BackgroundImageFix" result="shape"/>
<feGaussianBlur stdDeviation="1.73232" result="effect1_foregroundBlur_10008_27095"/>
</filter>
<filter id="filter3_f_10008_27095" x="-5.12414" y="-10.2413" width="38.928" height="40.3772" filterUnits="userSpaceOnUse" color-interpolation-filters="sRGB">
<feFlood flood-opacity="0" result="BackgroundImageFix"/>
<feBlend mode="normal" in="SourceGraphic" in2="BackgroundImageFix" result="shape"/>
<feGaussianBlur stdDeviation="0.692928" result="effect1_foregroundBlur_10008_27095"/>
</filter>
<filter id="filter4_d_10008_27095" x="-1.89297" y="7.05273" width="29.9406" height="35.166" filterUnits="userSpaceOnUse" color-interpolation-filters="sRGB">
<feFlood flood-opacity="0" result="BackgroundImageFix"/>
<feColorMatrix in="SourceAlpha" type="matrix" values="0 0 0 0 0 0 0 0 0 0 0 0 0 0 0 0 0 0 127 0" result="hardAlpha"/>
<feOffset dx="-3.7" dy="11.1"/>
<feGaussianBlur stdDeviation="3.7"/>
<feComposite in2="hardAlpha" operator="out"/>
<feColorMatrix type="matrix" values="0 0 0 0 0 0 0 0 0 0 0 0 0 0 0 0 0 0 0.14 0"/>
<feBlend mode="normal" in2="BackgroundImageFix" result="effect1_dropShadow_10008_27095"/>
<feBlend mode="normal" in="SourceGraphic" in2="effect1_dropShadow_10008_27095" result="shape"/>
</filter>
<linearGradient id="paint0_linear_10008_27095" x1="10.1066" y1="20.757" x2="21.6777" y2="-0.252817" gradientUnits="userSpaceOnUse">
<stop stop-color="#5A43EC" stop-opacity="0"/>
<stop offset="1" stop-color="#F9F9F9"/>
</linearGradient>
<radialGradient id="paint1_radial_10008_27095" cx="0" cy="0" r="1" gradientUnits="userSpaceOnUse" gradientTransform="translate(16.7779 6.25908) rotate(90) scale(28.9683 26.3177)">
<stop stop-color="white"/>
<stop offset="1" stop-color="white" stop-opacity="0"/>
</radialGradient>
<linearGradient id="paint2_linear_10008_27095" x1="16.7779" y1="7.05273" x2="16.7779" y2="23.7194" gradientUnits="userSpaceOnUse">
<stop offset="0.203653" stop-color="white" stop-opacity="0"/>
<stop offset="1" stop-color="white" stop-opacity="0.8"/>
</linearGradient>
<clipPath id="clip0_10008_27095">
<rect x="2.77344" y="1.38672" width="27.7171" height="27.7171" rx="5" fill="white"/>
</clipPath>
</defs>
</svg>
