<svg width="111" height="37" viewBox="0 0 111 37" fill="none" xmlns="http://www.w3.org/2000/svg">
<g filter="url(#filter0_ddi_10008_2829)">
<g clip-path="url(#clip0_10008_2829)">
<rect x="2.77148" y="1.38672" width="27.7171" height="27.7171" rx="5" fill="#111113"/>
<g filter="url(#filter1_f_10008_2829)">
<ellipse cx="14.9875" cy="3.49708" rx="14.9875" ry="3.49708" transform="matrix(0.866025 0.5 0.5 -0.866025 10.1113 -9.23438)" fill="#301DF4"/>
</g>
<ellipse cx="6.99416" cy="1.49875" rx="6.99416" ry="1.49875" transform="matrix(0.866025 0.5 0.5 -0.866025 18.0332 -6.96875)" fill="#ECEDEF"/>
<g filter="url(#filter3_f_10008_2829)">
<path d="M-3.74219 12.7637L23.9475 28.7503L32.4159 0.18118L16.7652 -8.85475L-3.74219 12.7637Z" fill="url(#paint0_linear_10008_2829)" fill-opacity="0.4"/>
</g>
<g filter="url(#filter4_d_10008_2829)">
<path d="M23.0301 10.2611L18.0801 7.40273C17.2717 6.93607 16.2717 6.93607 15.4551 7.40273L10.5134 10.2611C9.70508 10.7277 9.20508 11.5944 9.20508 12.5361V18.2361C9.20508 19.1694 9.70508 20.0361 10.5134 20.5111L15.4634 23.3694C16.2717 23.8361 17.2717 23.8361 18.0884 23.3694L23.0384 20.5111C23.8467 20.0444 24.3467 19.1777 24.3467 18.2361V12.5361C24.3384 11.5944 23.8384 10.7361 23.0301 10.2611ZM16.7717 11.5027C17.8467 11.5027 18.7134 12.3694 18.7134 13.4444C18.7134 14.5194 17.8467 15.3861 16.7717 15.3861C15.6967 15.3861 14.8301 14.5194 14.8301 13.4444C14.8301 12.3777 15.6967 11.5027 16.7717 11.5027ZM19.0051 19.2694H14.5384C13.8634 19.2694 13.4717 18.5194 13.8467 17.9611C14.4134 17.1194 15.5134 16.5527 16.7717 16.5527C18.0301 16.5527 19.1301 17.1194 19.6967 17.9611C20.0717 18.5111 19.6717 19.2694 19.0051 19.2694Z" fill="url(#paint1_radial_10008_2829)" shape-rendering="crispEdges"/>
<path d="M15.7041 7.83496C16.3261 7.4802 17.0772 7.46041 17.7061 7.76953L17.8301 7.83594L22.7764 10.6914V10.6924C23.4339 11.0788 23.8398 11.7752 23.8467 12.54V18.2363C23.8466 19.0003 23.4408 19.7013 22.7881 20.0781L17.8408 22.9355C17.1772 23.3148 16.3666 23.3132 15.7139 22.9365L10.7637 20.0781C10.1084 19.6916 9.70517 18.9892 9.70508 18.2363V12.5361C9.70508 11.82 10.0613 11.1589 10.6436 10.7686L10.7637 10.6943L15.7051 7.83594L15.7041 7.83496ZM16.7715 16.0527C15.3725 16.0528 14.1046 16.682 13.4316 17.6816V17.6826C12.838 18.5669 13.4559 19.7693 14.5381 19.7695H19.0049C20.0729 19.7695 20.7094 18.5631 20.1104 17.6816H20.1113C19.4382 16.6821 18.1704 16.0527 16.7715 16.0527ZM16.7715 11.0029C15.4191 11.0031 14.3301 12.103 14.3301 13.4443C14.3301 14.7954 15.4205 15.8856 16.7715 15.8857C18.1226 15.8857 19.2139 14.7955 19.2139 13.4443C19.2138 12.0932 18.1226 11.0029 16.7715 11.0029Z" stroke="url(#paint2_linear_10008_2829)" shape-rendering="crispEdges"/>
</g>
</g>
<rect x="3.11795" y="1.73318" width="27.0242" height="27.0242" rx="4.65354" stroke="white" stroke-opacity="0.15" stroke-width="0.692928"/>
</g>
<path d="M38.6231 21.7461V10.0734H40.601L44.4595 17.8228L48.318 10.0734H50.2958V21.7461H48.2369V14.7749L44.8486 21.7461H44.0704L40.6821 14.7749V21.7461H38.6231ZM55.992 21.9893C55.0949 21.9893 54.3032 21.7974 53.6169 21.4137C52.936 21.0247 52.401 20.4924 52.0119 19.8169C51.6282 19.1359 51.4364 18.3578 51.4364 17.4823C51.4364 16.5258 51.6255 15.6936 52.0038 14.9857C52.3821 14.2777 52.9036 13.7292 53.5683 13.3401C54.233 12.9456 54.9976 12.7484 55.8623 12.7484C56.781 12.7484 57.5618 12.9646 58.2049 13.3969C58.848 13.8292 59.3235 14.4371 59.6316 15.2207C59.9396 16.0043 60.0477 16.9257 59.9558 17.9849H57.7753V17.1743C57.7753 16.2826 57.6321 15.6422 57.3457 15.2532C57.0647 14.8587 56.6026 14.6614 55.9595 14.6614C55.2084 14.6614 54.6545 14.8911 54.2978 15.3504C53.9465 15.8044 53.7709 16.4772 53.7709 17.3688C53.7709 18.1848 53.9465 18.8171 54.2978 19.2656C54.6545 19.7088 55.176 19.9303 55.8623 19.9303C56.2946 19.9303 56.6648 19.8358 56.9728 19.6466C57.2808 19.4575 57.5159 19.1846 57.678 18.8279L59.8829 19.4602C59.5532 20.26 59.0317 20.8814 58.3184 21.3246C57.6105 21.7677 56.835 21.9893 55.992 21.9893ZM53.09 17.9849V16.3475H58.8939V17.9849H53.09ZM65.2069 21.9893C64.3098 21.9893 63.5181 21.7974 62.8318 21.4137C62.1509 21.0247 61.6159 20.4924 61.2268 19.8169C60.8431 19.1359 60.6513 18.3578 60.6513 17.4823C60.6513 16.5258 60.8404 15.6936 61.2187 14.9857C61.597 14.2777 62.1185 13.7292 62.7832 13.3401C63.4479 12.9456 64.2125 12.7484 65.0772 12.7484C65.9959 12.7484 66.7768 12.9646 67.4198 13.3969C68.0629 13.8292 68.5385 14.4371 68.8465 15.2207C69.1545 16.0043 69.2626 16.9257 69.1707 17.9849H66.9902V17.1743C66.9902 16.2826 66.847 15.6422 66.5606 15.2532C66.2796 14.8587 65.8175 14.6614 65.1745 14.6614C64.4233 14.6614 63.8694 14.8911 63.5127 15.3504C63.1615 15.8044 62.9858 16.4772 62.9858 17.3688C62.9858 18.1848 63.1615 18.8171 63.5127 19.2656C63.8694 19.7088 64.3909 19.9303 65.0772 19.9303C65.5095 19.9303 65.8797 19.8358 66.1877 19.6466C66.4957 19.4575 66.7308 19.1846 66.8929 18.8279L69.0978 19.4602C68.7681 20.26 68.2467 20.8814 67.5333 21.3246C66.8254 21.7677 66.0499 21.9893 65.2069 21.9893ZM62.3049 17.9849V16.3475H68.1088V17.9849H62.3049ZM75.6053 21.7461C75 21.8596 74.4056 21.9082 73.822 21.892C73.2437 21.8812 72.7249 21.7812 72.2656 21.5921C71.8117 21.3975 71.4658 21.0868 71.228 20.6599C71.0119 20.26 70.8984 19.8547 70.8876 19.444C70.8768 19.0279 70.8714 18.5577 70.8714 18.0335V10.5598H73.0762V17.9038C73.0762 18.2443 73.0789 18.5523 73.0843 18.8279C73.0951 19.0981 73.1519 19.3143 73.2545 19.4764C73.4491 19.7844 73.7598 19.952 74.1867 19.979C74.6137 20.006 75.0865 19.9844 75.6053 19.9141V21.7461ZM69.3799 14.6938V12.9916H75.6053V14.6938H69.3799ZM76.9077 21.7461V10.0734H84.041V12.2782H79.1125V14.8073H83.0683V17.0122H79.1125V21.7461H76.9077ZM85.0182 21.7461V9.83021H87.223V21.7461H85.0182ZM92.9442 21.9893C92.0634 21.9893 91.2906 21.792 90.6259 21.3975C89.9612 21.003 89.4424 20.4599 89.0695 19.7682C88.7021 19.0711 88.5183 18.2713 88.5183 17.3688C88.5183 16.4556 88.7075 15.6531 89.0858 14.9613C89.464 14.2642 89.9855 13.7211 90.6502 13.332C91.3149 12.9429 92.0796 12.7484 92.9442 12.7484C93.8251 12.7484 94.5979 12.9456 95.2626 13.3401C95.9327 13.7346 96.4542 14.2804 96.827 14.9776C97.1999 15.6693 97.3863 16.4664 97.3863 17.3688C97.3863 18.2767 97.1972 19.0792 96.8189 19.7763C96.446 20.468 95.9246 21.0111 95.2545 21.4056C94.5898 21.7947 93.8197 21.9893 92.9442 21.9893ZM92.9442 19.9303C93.6522 19.9303 94.1791 19.6926 94.5249 19.217C94.8762 18.7361 95.0518 18.12 95.0518 17.3688C95.0518 16.5907 94.8735 15.9692 94.5168 15.5044C94.1655 15.0397 93.6414 14.8073 92.9442 14.8073C92.4633 14.8073 92.0688 14.9154 91.7608 15.1316C91.4527 15.3477 91.2231 15.6476 91.0717 16.0313C90.9258 16.415 90.8529 16.8609 90.8529 17.3688C90.8529 18.1524 91.0285 18.7766 91.3798 19.2413C91.7364 19.7007 92.2579 19.9303 92.9442 19.9303ZM100.068 21.7461L97.3932 12.9754L99.5494 12.9916L101.138 18.2119L102.751 12.9916H104.583L106.196 18.2119L107.785 12.9916H109.941L107.266 21.7461H105.58L103.667 16.0394L101.754 21.7461H100.068Z" fill="currentColor"/>
<defs>
<filter id="filter0_ddi_10008_2829" x="-0.000226498" y="0.000863314" width="33.2602" height="36.7249" filterUnits="userSpaceOnUse" color-interpolation-filters="sRGB">
<feFlood flood-opacity="0" result="BackgroundImageFix"/>
<feColorMatrix in="SourceAlpha" type="matrix" values="0 0 0 0 0 0 0 0 0 0 0 0 0 0 0 0 0 0 127 0" result="hardAlpha"/>
<feMorphology radius="1.38586" operator="dilate" in="SourceAlpha" result="effect1_dropShadow_10008_2829"/>
<feOffset/>
<feComposite in2="hardAlpha" operator="out"/>
<feColorMatrix type="matrix" values="0 0 0 0 0.745098 0 0 0 0 0.792157 0 0 0 0 0.917647 0 0 0 0.03 0"/>
<feBlend mode="normal" in2="BackgroundImageFix" result="effect1_dropShadow_10008_2829"/>
<feColorMatrix in="SourceAlpha" type="matrix" values="0 0 0 0 0 0 0 0 0 0 0 0 0 0 0 0 0 0 127 0" result="hardAlpha"/>
<feMorphology radius="4.15757" operator="erode" in="SourceAlpha" result="effect2_dropShadow_10008_2829"/>
<feOffset dy="4.85049"/>
<feGaussianBlur stdDeviation="3.46464"/>
<feComposite in2="hardAlpha" operator="out"/>
<feColorMatrix type="matrix" values="0 0 0 0 0 0 0 0 0 0 0 0 0 0 0 0 0 0 1 0"/>
<feBlend mode="normal" in2="effect1_dropShadow_10008_2829" result="effect2_dropShadow_10008_2829"/>
<feBlend mode="normal" in="SourceGraphic" in2="effect2_dropShadow_10008_2829" result="shape"/>
<feColorMatrix in="SourceAlpha" type="matrix" values="0 0 0 0 0 0 0 0 0 0 0 0 0 0 0 0 0 0 127 0" result="hardAlpha"/>
<feOffset dy="2.77171"/>
<feGaussianBlur stdDeviation="3.46464"/>
<feComposite in2="hardAlpha" operator="arithmetic" k2="-1" k3="1"/>
<feColorMatrix type="matrix" values="0 0 0 0 1 0 0 0 0 1 0 0 0 0 1 0 0 0 0.11 0"/>
<feBlend mode="normal" in2="shape" result="effect3_innerShadow_10008_2829"/>
</filter>
<filter id="filter1_f_10008_2829" x="8.2756" y="-16.3182" width="33.1265" height="23.0992" filterUnits="userSpaceOnUse" color-interpolation-filters="sRGB">
<feFlood flood-opacity="0" result="BackgroundImageFix"/>
<feBlend mode="normal" in="SourceGraphic" in2="BackgroundImageFix" result="shape"/>
<feGaussianBlur stdDeviation="1.73232" result="effect1_foregroundBlur_10008_2829"/>
</filter>
<filter id="filter3_f_10008_2829" x="-5.12804" y="-10.2413" width="38.9299" height="40.3772" filterUnits="userSpaceOnUse" color-interpolation-filters="sRGB">
<feFlood flood-opacity="0" result="BackgroundImageFix"/>
<feBlend mode="normal" in="SourceGraphic" in2="BackgroundImageFix" result="shape"/>
<feGaussianBlur stdDeviation="0.692928" result="effect1_foregroundBlur_10008_2829"/>
</filter>
<filter id="filter4_d_10008_2829" x="-1.89492" y="7.05273" width="29.9426" height="35.166" filterUnits="userSpaceOnUse" color-interpolation-filters="sRGB">
<feFlood flood-opacity="0" result="BackgroundImageFix"/>
<feColorMatrix in="SourceAlpha" type="matrix" values="0 0 0 0 0 0 0 0 0 0 0 0 0 0 0 0 0 0 127 0" result="hardAlpha"/>
<feOffset dx="-3.7" dy="11.1"/>
<feGaussianBlur stdDeviation="3.7"/>
<feComposite in2="hardAlpha" operator="out"/>
<feColorMatrix type="matrix" values="0 0 0 0 0 0 0 0 0 0 0 0 0 0 0 0 0 0 0.14 0"/>
<feBlend mode="normal" in2="BackgroundImageFix" result="effect1_dropShadow_10008_2829"/>
<feBlend mode="normal" in="SourceGraphic" in2="effect1_dropShadow_10008_2829" result="shape"/>
</filter>
<linearGradient id="paint0_linear_10008_2829" x1="10.1027" y1="20.757" x2="21.6738" y2="-0.252817" gradientUnits="userSpaceOnUse">
<stop stop-color="#5A43EC" stop-opacity="0"/>
<stop offset="1" stop-color="#F9F9F9"/>
</linearGradient>
<radialGradient id="paint1_radial_10008_2829" cx="0" cy="0" r="1" gradientUnits="userSpaceOnUse" gradientTransform="translate(16.7759 6.25908) rotate(90) scale(28.9683 26.3177)">
<stop stop-color="white"/>
<stop offset="1" stop-color="white" stop-opacity="0"/>
</radialGradient>
<linearGradient id="paint2_linear_10008_2829" x1="16.7759" y1="7.05273" x2="16.7759" y2="23.7194" gradientUnits="userSpaceOnUse">
<stop offset="0.203653" stop-color="white" stop-opacity="0"/>
<stop offset="1" stop-color="white" stop-opacity="0.8"/>
</linearGradient>
<clipPath id="clip0_10008_2829">
<rect x="2.77148" y="1.38672" width="27.7171" height="27.7171" rx="5" fill="white"/>
</clipPath>
</defs>
</svg>
